<svg width="670" height="491" viewBox="0 0 670 491" xmlns="http://www.w3.org/2000/svg">

  <rect x="0.5" y="0.5" width="669" height="220" rx="12" fill="#0d1117" stroke="#30363d"/>

  <line x1="223" y1="30" x2="223" y2="200" stroke="#30363d" stroke-width="1"/>
  <line x1="446" y1="30" x2="446" y2="200" stroke="#30363d" stroke-width="1"/>

  <text x="111" y="60" fill="#c084fc" font-size="30" font-weight="700" font-family="Segoe UI, sans-serif" text-anchor="middle">339</text>
  <text x="111" y="85" fill="#e6edf3" font-size="13" font-family="Segoe UI, sans-serif" text-anchor="middle">Total Contributions</text>
  <text x="111" y="103" fill="#8b949e" font-size="11" font-family="Segoe UI, sans-serif" text-anchor="middle">Jul 13, 2025 - Present</text>

  <circle cx="335" cy="90" r="34" fill="none" stroke="#39d353" stroke-width="4"/>
  <text x="335" y="72" fill="#a855f7" font-size="16" text-anchor="middle" font-family="Segoe UI, sans-serif">&#128293;</text>
  <text x="335" y="98" fill="#e6edf3" font-size="22" font-weight="700" font-family="Segoe UI, sans-serif" text-anchor="middle">5</text>
  <text x="335" y="150" fill="#58a6ff" font-size="13" font-weight="600" font-family="Segoe UI, sans-serif" text-anchor="middle">Current Streak</text>
  <text x="335" y="168" fill="#8b949e" font-size="11" font-family="Segoe UI, sans-serif" text-anchor="middle">Jul 14</text>

  <text x="558" y="60" fill="#c084fc" font-size="30" font-weight="700" font-family="Segoe UI, sans-serif" text-anchor="middle">5</text>
  <text x="558" y="85" fill="#e6edf3" font-size="13" font-family="Segoe UI, sans-serif" text-anchor="middle">Longest Streak</text>
  <text x="558" y="103" fill="#8b949e" font-size="11" font-family="Segoe UI, sans-serif" text-anchor="middle">Jun 12, 2026 - Jun 16, 2026</text>


  <rect x="0.5" y="236" width="669" height="245" rx="12" fill="#0d1117" stroke="#30363d"/>
  <text x="30" y="264" fill="#e6edf3" font-size="15" font-weight="600" font-family="Segoe UI, sans-serif">Top Languages</text>
  <g transform="translate(0, 236)">
    
        <text x="30" y="45" fill="#e6edf3" font-size="12" font-family="Segoe UI, sans-serif">HTML</text>
        <text x="640" y="45" fill="#8b949e" font-size="12" font-family="Segoe UI, sans-serif" text-anchor="end">33.2%</text>
        <rect x="30" y="53" width="610" height="6" rx="3" fill="#21262d"/>
        <rect x="30" y="53" width="195" height="6" rx="3" fill="#e34c26"/>
        
        <text x="30" y="81" fill="#e6edf3" font-size="12" font-family="Segoe UI, sans-serif">TypeScript</text>
        <text x="640" y="81" fill="#8b949e" font-size="12" font-family="Segoe UI, sans-serif" text-anchor="end">24.6%</text>
        <rect x="30" y="89" width="610" height="6" rx="3" fill="#21262d"/>
        <rect x="30" y="89" width="145" height="6" rx="3" fill="#3178c6"/>
        
        <text x="30" y="117" fill="#e6edf3" font-size="12" font-family="Segoe UI, sans-serif">Jupyter Notebook</text>
        <text x="640" y="117" fill="#8b949e" font-size="12" font-family="Segoe UI, sans-serif" text-anchor="end">23.3%</text>
        <rect x="30" y="125" width="610" height="6" rx="3" fill="#21262d"/>
        <rect x="30" y="125" width="137" height="6" rx="3" fill="#DA5B0B"/>
        
        <text x="30" y="153" fill="#e6edf3" font-size="12" font-family="Segoe UI, sans-serif">JavaScript</text>
        <text x="640" y="153" fill="#8b949e" font-size="12" font-family="Segoe UI, sans-serif" text-anchor="end">14.6%</text>
        <rect x="30" y="161" width="610" height="6" rx="3" fill="#21262d"/>
        <rect x="30" y="161" width="86" height="6" rx="3" fill="#f1e05a"/>
        
        <text x="30" y="189" fill="#e6edf3" font-size="12" font-family="Segoe UI, sans-serif">Python</text>
        <text x="640" y="189" fill="#8b949e" font-size="12" font-family="Segoe UI, sans-serif" text-anchor="end">4.3%</text>
        <rect x="30" y="197" width="610" height="6" rx="3" fill="#21262d"/>
        <rect x="30" y="197" width="25" height="6" rx="3" fill="#3572A5"/>
        
  </g>

</svg>